<mxfile host="65bd71144e">
    <diagram id="-7S034xA746sIg_FjBR2" name="Страница 1">
        <mxGraphModel dx="313" dy="562" grid="1" gridSize="10" guides="1" tooltips="1" connect="1" arrows="1" fold="1" page="1" pageScale="1" pageWidth="827" pageHeight="1169" math="0" shadow="0">
            <root>
                <mxCell id="0"/>
                <mxCell id="1" parent="0"/>
                <mxCell id="6" value="" style="edgeStyle=none;html=1;exitX=0.5;exitY=1;exitDx=0;exitDy=0;" parent="1" source="3" target="2" edge="1">
                    <mxGeometry relative="1" as="geometry">
                        <mxPoint x="100" y="260" as="targetPoint"/>
                    </mxGeometry>
                </mxCell>
                <mxCell id="11" value="" style="edgeStyle=none;html=1;fontColor=#321DF0;startArrow=none;" parent="1" source="12" edge="1">
                    <mxGeometry relative="1" as="geometry">
                        <mxPoint x="145" y="630" as="targetPoint"/>
                        <Array as="points">
                            <mxPoint x="145" y="610"/>
                        </Array>
                    </mxGeometry>
                </mxCell>
                <mxCell id="2" value="&lt;div style=&quot;color: rgb(246, 246, 244); background-color: rgb(40, 42, 54); font-family: Consolas, &amp;quot;Courier New&amp;quot;, monospace; font-size: 14px; line-height: 19px;&quot;&gt;&lt;span style=&quot;color: #7b7f8b;&quot;&gt;$ad_views &amp;lt; 4&lt;/span&gt;&lt;/div&gt;" style="rounded=0;whiteSpace=wrap;html=1;" parent="1" vertex="1">
                    <mxGeometry x="85" y="400" width="120" height="60" as="geometry"/>
                </mxCell>
                <mxCell id="3" value="&lt;div style=&quot;color: rgb(246, 246, 244); background-color: rgb(40, 42, 54); font-family: Consolas, &amp;quot;Courier New&amp;quot;, monospace; font-size: 14px; line-height: 19px;&quot;&gt;&lt;span style=&quot;color: #97e1f1;&quot;&gt;rand&lt;/span&gt;(&lt;span style=&quot;color: #97e1f1;font-style: italic;&quot;&gt;int&lt;/span&gt;&lt;span style=&quot;color: #62e884;&quot;&gt; &lt;/span&gt;$min,&lt;span style=&quot;color: #62e884;&quot;&gt; &lt;/span&gt;&lt;span style=&quot;color: #97e1f1;font-style: italic;&quot;&gt;int&lt;/span&gt;&lt;span style=&quot;color: #62e884;&quot;&gt; &lt;/span&gt;$max): &lt;span style=&quot;color: #97e1f1;font-style: italic;&quot;&gt;int&lt;/span&gt;&lt;/div&gt;" style="whiteSpace=wrap;html=1;aspect=fixed;" parent="1" vertex="1">
                    <mxGeometry x="40" y="140" width="210" height="210" as="geometry"/>
                </mxCell>
                <mxCell id="9" value="" style="edgeStyle=none;html=1;" parent="1" source="8" target="3" edge="1">
                    <mxGeometry relative="1" as="geometry"/>
                </mxCell>
                <mxCell id="8" value="&lt;div style=&quot;color: rgb(246, 246, 244); background-color: rgb(40, 42, 54); font-family: Consolas, &amp;quot;Courier New&amp;quot;, monospace; font-size: 14px; line-height: 19px;&quot;&gt;$ad_views &lt;span style=&quot;color: #f286c4;&quot;&gt;=&lt;/span&gt;&lt;span style=&quot;color: #97e1f1;&quot;&gt;rand&lt;/span&gt;(&lt;span style=&quot;color: #bf9eee;&quot;&gt;0&lt;/span&gt;,&lt;span style=&quot;color: #bf9eee;&quot;&gt;5&lt;/span&gt;);&lt;/div&gt;" style="rhombus;whiteSpace=wrap;html=1;" parent="1" vertex="1">
                    <mxGeometry x="30" width="220" height="110" as="geometry"/>
                </mxCell>
                <mxCell id="14" value="" style="edgeStyle=none;html=1;fontColor=#321DF0;endArrow=none;" parent="1" source="2" target="12" edge="1">
                    <mxGeometry relative="1" as="geometry">
                        <mxPoint x="145" y="460" as="sourcePoint"/>
                        <mxPoint x="145" y="540" as="targetPoint"/>
                    </mxGeometry>
                </mxCell>
                <mxCell id="12" value="&lt;font style=&quot;font-size: 16px;&quot; color=&quot;#21f11e&quot;&gt;true&lt;/font&gt;" style="text;html=1;strokeColor=none;fillColor=none;align=center;verticalAlign=middle;whiteSpace=wrap;rounded=0;fontColor=#321DF0;" parent="1" vertex="1">
                    <mxGeometry x="90" y="470" width="110" height="55" as="geometry"/>
                </mxCell>
                <mxCell id="15" value="&lt;div style=&quot;color: rgb(246, 246, 244); background-color: rgb(40, 42, 54); font-family: Consolas, &amp;quot;Courier New&amp;quot;, monospace; font-size: 14px; line-height: 19px;&quot;&gt;&amp;nbsp;&lt;span style=&quot;color: #97e1f1;&quot;&gt;print&lt;/span&gt;&lt;span style=&quot;color: #62e884;&quot;&gt; &lt;/span&gt;(&lt;span style=&quot;color: #dee492;&quot;&gt;&quot;&lt;/span&gt;&lt;span style=&quot;color: #e7ee98;&quot;&gt;New advertisment text ...&lt;/span&gt;&lt;span style=&quot;color: #dee492;&quot;&gt;&quot;&lt;/span&gt;);&lt;/div&gt;" style="rounded=1;whiteSpace=wrap;html=1;fontSize=16;fontColor=#21f11e;" parent="1" vertex="1">
                    <mxGeometry y="640" width="290" height="60" as="geometry"/>
                </mxCell>
                <mxCell id="16" value="" style="endArrow=classic;html=1;fontSize=16;fontColor=#21f11e;exitX=0.5;exitY=1;exitDx=0;exitDy=0;" parent="1" source="15" edge="1">
                    <mxGeometry relative="1" as="geometry">
                        <mxPoint x="110" y="560" as="sourcePoint"/>
                        <mxPoint x="145" y="900" as="targetPoint"/>
                    </mxGeometry>
                </mxCell>
                <mxCell id="17" value="end" style="edgeLabel;resizable=0;html=1;align=center;verticalAlign=middle;fontSize=16;fontColor=#21f11e;" parent="16" connectable="0" vertex="1">
                    <mxGeometry relative="1" as="geometry"/>
                </mxCell>
                <mxCell id="21" value="" style="endArrow=none;dashed=1;html=1;" edge="1" parent="1">
                    <mxGeometry width="50" height="50" relative="1" as="geometry">
                        <mxPoint x="400" y="435" as="sourcePoint"/>
                        <mxPoint x="210" y="435" as="targetPoint"/>
                        <Array as="points">
                            <mxPoint x="320" y="435"/>
                        </Array>
                    </mxGeometry>
                </mxCell>
                <mxCell id="22" value="" style="endArrow=none;dashed=1;html=1;dashPattern=1 3;strokeWidth=2;" edge="1" parent="1">
                    <mxGeometry width="50" height="50" relative="1" as="geometry">
                        <mxPoint x="401" y="750" as="sourcePoint"/>
                        <mxPoint x="400" y="440" as="targetPoint"/>
                    </mxGeometry>
                </mxCell>
                <mxCell id="23" value="" style="endArrow=classic;html=1;" edge="1" parent="1">
                    <mxGeometry relative="1" as="geometry">
                        <mxPoint x="400" y="750" as="sourcePoint"/>
                        <mxPoint x="160" y="750" as="targetPoint"/>
                    </mxGeometry>
                </mxCell>
                <mxCell id="24" value="false" style="edgeLabel;resizable=0;html=1;align=center;verticalAlign=middle;fontColor=#F0501F;fontSize=15;" connectable="0" vertex="1" parent="23">
                    <mxGeometry relative="1" as="geometry"/>
                </mxCell>
            </root>
        </mxGraphModel>
    </diagram>
</mxfile>